<?xml version="1.0" encoding="UTF-8"?>
<svg xmlns="http://www.w3.org/2000/svg" viewBox="0 0 258 258" preserveAspectRatio="xMidYMid meet">
  <path fill="#000000" d="M237.6 20.5C219.4.6 174 .9 129 .1 83.7 1 38.4.6 20.4 20.5.5 38.5.9 83.8.1 129c.8 45.2.4 90.5 20.3 108.5C38.4 257.4 83.7 257 129 257.9c45-.8 90.4-.5 108.6-20.4 19.9-18 19.5-63.3 20.3-108.5-.8-45.2-.4-90.5-20.3-108.5ZM94 82c-9.8 0-17.8-8-17.8-17.8S84.2 46.4 94 46.4s17.8 8 17.8 17.8S103.8 82 94 82Zm70 0c-9.8 0-17.8-8-17.8-17.8s8-17.8 17.8-17.8 17.8 8 17.8 17.8S173.8 82 164 82Zm47.5 122h-54.8c-7 16.8-16.6 29.5-27.7 29.5s-20.7-12.7-27.7-29.5H46.5c3-22.4 19.8-39.7 43.6-46.2-19.4-12.2-31.7-33.1-31.7-57.1 0-39.2 31.2-69.5 70.6-69.5s70.6 30.3 70.6 69.5c0 24-12.3 44.9-31.7 57.1 23.8 6.5 40.6 23.8 43.6 46.2ZM88.5 125.5c22.1 24.4 58.9 24.4 81 0l12.5 10.8c-28.1 33-77.9 33-106 0l12.5-10.8Z"/>
</svg>
